<svg width="114" height="99" fill="none" xmlns="http://www.w3.org/2000/svg"><circle cx="38.4" cy="60.6" r="38.081" fill="#F90" stroke="#F90" stroke-width=".639"/><path fill-rule="evenodd" clip-rule="evenodd" d="M73.006 30.02c-5.644 0-10.219 4.575-10.219 10.219 0 5.644 4.575 10.22 10.22 10.22 5.643 0 10.219-4.576 10.219-10.22 0-5.644-4.576-10.22-10.22-10.22ZM61.51 40.238c0-6.35 5.147-11.497 11.496-11.497 6.35 0 11.497 5.147 11.497 11.497s-5.147 11.497-11.497 11.497S61.51 46.588 61.51 40.239Z" fill="#000"/><path fill-rule="evenodd" clip-rule="evenodd" d="M73.326 1.28a6.617 6.617 0 0 0-6.617 6.618v.62a6.628 6.628 0 0 1-4.018 6.065.642.642 0 0 1-.252.052h-.159a6.628 6.628 0 0 1-7.184-1.38l-.004-.005-.218-.218a6.62 6.62 0 0 0-9.364 0 6.618 6.618 0 0 0 0 9.364l.222.223a6.628 6.628 0 0 1 1.334 7.293 6.627 6.627 0 0 1-6.059 4.319h-.341a6.617 6.617 0 0 0 0 13.235h.62a6.628 6.628 0 0 1 6.064 4.014 6.629 6.629 0 0 1-1.327 7.307l-.005.005-.218.218a6.619 6.619 0 0 0 0 9.364 6.618 6.618 0 0 0 9.364 0l.223-.222a6.627 6.627 0 0 1 7.292-1.334A6.628 6.628 0 0 1 67 72.876v.342a6.617 6.617 0 0 0 13.235 0v-.619a6.628 6.628 0 0 1 4.013-6.065 6.628 6.628 0 0 1 7.308 1.327l.005.005.218.218a6.618 6.618 0 0 0 9.364 0 6.621 6.621 0 0 0 1.941-4.682 6.617 6.617 0 0 0-1.941-4.682l-.223-.223a6.63 6.63 0 0 1-1.327-7.308 6.634 6.634 0 0 1 6.065-4.014h.329a6.617 6.617 0 0 0 0-13.234h-.62a6.63 6.63 0 0 1-6.065-4.017.64.64 0 0 1-.052-.253v-.158a6.629 6.629 0 0 1 1.38-7.184l.005-.005.218-.218a6.622 6.622 0 0 0 0-9.364h-.001A6.61 6.61 0 0 0 96.17 10.8a6.617 6.617 0 0 0-4.682 1.94l-.223.224a6.628 6.628 0 0 1-7.308 1.327 6.627 6.627 0 0 1-4.014-6.065v-.329a6.617 6.617 0 0 0-6.617-6.617ZM67.74 2.314a7.898 7.898 0 0 1 13.483 5.585v.325a5.347 5.347 0 0 0 3.24 4.893l.007.002a5.348 5.348 0 0 0 5.898-1.069l.213-.213A7.899 7.899 0 0 1 103.47 14.4a7.889 7.889 0 0 1 0 6.05 7.895 7.895 0 0 1-1.714 2.563l-.212.212a5.342 5.342 0 0 0-1.439 2.785 5.347 5.347 0 0 0 .369 3.113.64.64 0 0 1 .055.26v.154a5.344 5.344 0 0 0 4.84 3.124h.616a7.901 7.901 0 0 1 7.898 7.898 7.899 7.899 0 0 1-7.898 7.898h-.325a5.346 5.346 0 0 0-4.893 3.241l-.003.006a5.347 5.347 0 0 0 1.07 5.898l.212.213a7.899 7.899 0 0 1-2.563 12.89 7.9 7.9 0 0 1-8.612-1.714l-.213-.213-.002-.003a5.347 5.347 0 0 0-5.896-1.067l-.006.003a5.347 5.347 0 0 0-3.24 4.892v.616a7.898 7.898 0 1 1-15.797 0v-.319a5.348 5.348 0 0 0-3.537-4.901 5.347 5.347 0 0 0-5.899 1.07l-.212.212a7.898 7.898 0 0 1-11.176 0 7.898 7.898 0 0 1 0-11.175l.213-.213.002-.003a5.347 5.347 0 0 0 1.068-5.895l-.003-.007a5.347 5.347 0 0 0-4.892-3.24h-.616a7.898 7.898 0 1 1 0-15.797h.319a5.347 5.347 0 0 0 4.901-3.537 5.348 5.348 0 0 0-1.067-5.896l-.215-.215a7.898 7.898 0 0 1 0-11.176 7.897 7.897 0 0 1 11.175 0l.216.216a5.348 5.348 0 0 0 5.895 1.067.64.64 0 0 1 .259-.055h.155a5.347 5.347 0 0 0 3.124-4.84v-.616c0-2.095.832-4.103 2.313-5.585Z" fill="#000"/></svg>