<svg width="131" height="42" fill="none" xmlns="http://www.w3.org/2000/svg"><g clip-path="url(#a)"><path d="M40.706 21.243c-.644.37-1.426.663-2.345.878a12.54 12.54 0 0 1-2.863.322c-1.337 0-2.476-.161-3.42-.484-.93-.322-1.634-.77-2.111-1.342a3.06 3.06 0 0 1-.698-1.987c0-.656.179-1.235.537-1.736.358-.501.853-.889 1.485-1.163a2.718 2.718 0 0 1-1.127-1.038 3.022 3.022 0 0 1-.376-1.486c0-.692.215-1.325.644-1.897.442-.573 1.11-1.033 2.005-1.379.895-.346 1.999-.519 3.311-.519.824 0 1.635.078 2.434.233.8.155 1.504.364 2.112.626l-.966 2.65a8.434 8.434 0 0 0-3.437-.734c-.847 0-1.48.113-1.897.34-.417.215-.626.519-.626.913 0 .716.519 1.074 1.557 1.074h3.544v2.702h-3.777c-.608 0-1.068.102-1.378.304-.31.191-.465.478-.465.86 0 .405.226.722.68.948.453.227 1.157.34 2.112.34.68 0 1.378-.09 2.094-.268.728-.191 1.36-.448 1.897-.77l1.074 2.613ZM49.829 17.109c1.11.37 1.664 1.133 1.664 2.29 0 .872-.34 1.558-1.02 2.06-.68.489-1.683.733-3.007.733h-5.46v-9.701h5.21c1.264 0 2.243.22 2.935.662.704.442 1.056 1.062 1.056 1.862 0 .465-.12.877-.358 1.235-.239.358-.579.644-1.02.859Zm-4.78-.716h1.862c.788 0 1.181-.293 1.181-.877 0-.561-.393-.841-1.18-.841H45.05v1.718Zm2.113 3.598c.823 0 1.235-.299 1.235-.895 0-.597-.4-.895-1.2-.895H45.05v1.79h2.112ZM57.757 18.738h-1.145v3.454H53.21v-9.701h3.4v3.58h1.218l2.38-3.58h3.598l-3.257 4.654 3.472 5.047h-4.01l-2.255-3.454ZM75.03 12.49v9.702h-3.401v-6.998h-2.452l-.072 1.485c-.048 1.265-.173 2.31-.376 3.133s-.537 1.467-1.002 1.933c-.466.453-1.104.68-1.915.68-.418 0-.967-.078-1.647-.233l.143-2.774c.215.024.358.035.43.035.37 0 .65-.119.841-.357.19-.24.322-.555.394-.95.071-.405.12-.942.143-1.61l.143-4.045h8.77ZM87.303 12.49v9.702h-3.24v-1.02a3.587 3.587 0 0 1-1.289.877 4.072 4.072 0 0 1-1.575.304c-1.265 0-2.273-.37-3.025-1.11-.74-.74-1.11-1.85-1.11-3.329v-5.423h3.401v4.868c0 1.396.543 2.094 1.63 2.094.536 0 .972-.184 1.306-.554.334-.382.5-.96.5-1.736V12.49h3.402ZM99.913 12.49v7.93c0 1.802-.489 3.15-1.468 4.045-.978.907-2.386 1.36-4.224 1.36-.954 0-1.85-.107-2.684-.322-.836-.214-1.546-.53-2.13-.948l1.235-2.38c.393.321.889.572 1.485.75a5.96 5.96 0 0 0 1.79.287c.895 0 1.551-.197 1.969-.59.418-.394.626-.979.626-1.754v-.323c-.656.764-1.616 1.146-2.881 1.146-.86 0-1.653-.191-2.38-.573a4.514 4.514 0 0 1-1.737-1.647c-.43-.715-.644-1.539-.644-2.47 0-.918.214-1.73.644-2.434a4.346 4.346 0 0 1 1.736-1.646 4.923 4.923 0 0 1 2.38-.591c1.385 0 2.4.447 3.044 1.342v-1.181h3.24Zm-5.477 6.498c.609 0 1.11-.185 1.504-.555.405-.37.608-.847.608-1.432 0-.584-.197-1.056-.59-1.414-.394-.37-.901-.554-1.522-.554-.62 0-1.133.184-1.54.554-.393.358-.59.83-.59 1.414 0 .585.203 1.062.609 1.432.405.37.913.555 1.521.555ZM34.786 26.933v5.841h-1.635v-4.531h-2.22v4.531h-1.627v-5.841h5.482ZM38.363 28.176c.495 0 .927.095 1.294.284.367.19.648.462.843.818.2.35.3.762.3 1.235 0 .467-.092.879-.275 1.235a2 2 0 0 1-.776.817c-.334.19-.72.284-1.16.284-.518 0-.924-.158-1.219-.475v2.019h-1.585v-3.864c0-.467.106-.878.317-1.235.211-.356.512-.631.901-.826.39-.194.843-.292 1.36-.292Zm-.075 3.413a.87.87 0 0 0 .684-.292c.179-.2.268-.462.268-.784 0-.323-.09-.582-.268-.776-.172-.2-.4-.3-.684-.3-.283 0-.511.1-.684.3-.172.194-.259.453-.259.776 0 .328.084.59.25.784.173.195.404.292.693.292ZM43.794 32.85c-.484 0-.92-.1-1.31-.301-.39-.2-.695-.479-.918-.835a2.28 2.28 0 0 1-.325-1.21c0-.445.108-.845.325-1.201a2.25 2.25 0 0 1 .91-.826c.39-.2.829-.3 1.318-.3.49 0 .93.1 1.319.3.39.194.692.47.91.826.216.35.325.75.325 1.201 0 .451-.109.854-.326 1.21-.217.356-.52.635-.91.835-.389.2-.828.3-1.318.3Zm0-1.26a.898.898 0 0 0 .685-.285c.178-.194.267-.461.267-.8 0-.334-.09-.596-.267-.785a.898.898 0 0 0-.685-.284.898.898 0 0 0-.684.284c-.178.19-.267.45-.267.784 0 .34.09.607.267.801.178.19.406.284.684.284ZM49.486 31.64c.217 0 .404-.031.56-.093.16-.06.322-.16.483-.3l.827.868c-.429.49-1.069.734-1.92.734-.528 0-.993-.1-1.393-.3-.4-.2-.712-.479-.935-.835a2.28 2.28 0 0 1-.325-1.21c0-.445.108-.842.325-1.193.217-.356.515-.634.893-.834.384-.2.812-.3 1.285-.3.44 0 .84.091 1.202.275.367.178.659.442.876.792.217.345.325.757.325 1.235l-3.229.618c.172.361.515.542 1.026.542Zm-.191-2.337a.904.904 0 0 0-.668.258c-.173.167-.27.41-.292.726l1.836-.358a.823.823 0 0 0-.317-.451.906.906 0 0 0-.56-.175ZM54.565 31.164h-.534v1.61h-1.586v-4.523h1.586v1.67h.567l1.11-1.67h1.678l-1.52 2.17 1.62 2.353h-1.87l-1.051-1.61ZM63.903 28.176c.556 0 .998.167 1.327.5.333.335.5.838.5 1.511v2.587h-1.585v-2.328c0-.317-.061-.55-.184-.701-.117-.15-.284-.225-.5-.225a.724.724 0 0 0-.576.25c-.145.167-.217.42-.217.76v2.244h-1.586v-2.328c0-.618-.228-.926-.684-.926a.734.734 0 0 0-.584.25c-.145.167-.217.42-.217.76v2.244H58.01v-4.523h1.51v.476c.168-.184.365-.32.593-.409.234-.095.487-.142.76-.142.317 0 .6.059.85.176.251.116.454.294.61.534.178-.229.403-.404.676-.526.272-.123.57-.184.893-.184ZM66.69 28.251h1.577v1.678h1.628V28.25h1.585v4.523h-1.585V31.19h-1.628v1.585H66.69v-4.523ZM74.702 32.908c-1.496 0-2.244-.643-2.244-1.928v-2.729h1.577v1.436c.117-.078.272-.142.467-.192.2-.05.428-.075.684-.075.557 0 .993.141 1.31.425.318.278.476.693.476 1.244 0 .595-.206 1.048-.617 1.36-.407.306-.957.459-1.653.459Zm2.646-4.657h1.585v4.523h-1.585v-4.523Zm-2.646 3.572c.217 0 .381-.064.493-.192.111-.128.167-.298.167-.51 0-.205-.056-.366-.167-.483-.112-.117-.273-.175-.484-.175a.921.921 0 0 0-.4.083.694.694 0 0 0-.276.225v.35c0 .218.055.39.167.518.11.123.278.184.5.184ZM82.393 31.64c.217 0 .403-.031.559-.093.161-.06.322-.16.484-.3l.826.868c-.428.49-1.068.734-1.92.734-.528 0-.992-.1-1.393-.3-.4-.2-.712-.479-.935-.835a2.28 2.28 0 0 1-.325-1.21c0-.445.109-.842.325-1.193.217-.356.515-.634.893-.834.384-.2.813-.3 1.285-.3.44 0 .84.091 1.202.275.367.178.66.442.876.792.217.345.326.757.326 1.235l-3.23.618c.173.361.515.542 1.027.542Zm-.192-2.337a.904.904 0 0 0-.668.258c-.172.167-.27.41-.292.726l1.836-.358a.823.823 0 0 0-.317-.451.905.905 0 0 0-.56-.175ZM90.05 32.85c-.5 0-.949-.1-1.343-.301a2.285 2.285 0 0 1-.927-.835 2.279 2.279 0 0 1-.325-1.21c0-.45.108-.85.325-1.201.223-.356.531-.632.927-.826.394-.2.842-.3 1.343-.3.512 0 .954.11 1.327.333.373.217.637.52.793.91l-1.227.625c-.206-.406-.506-.609-.901-.609a.962.962 0 0 0-.71.284c-.183.19-.275.45-.275.784 0 .34.092.607.275.801.19.19.426.284.71.284.395 0 .695-.203.9-.609l1.228.626c-.156.39-.42.695-.793.918-.373.217-.815.325-1.327.325ZM97.489 28.251v4.523h-1.51v-.476a1.672 1.672 0 0 1-.601.41 1.898 1.898 0 0 1-.734.141c-.59 0-1.06-.172-1.41-.517-.346-.345-.518-.862-.518-1.552V28.25H94.3v2.27c0 .651.254.976.76.976.25 0 .453-.086.609-.258.156-.178.233-.448.233-.81v-2.178h1.586ZM100.823 32.85c-.501 0-.948-.1-1.343-.301a2.284 2.284 0 0 1-.927-.835 2.279 2.279 0 0 1-.325-1.21c0-.45.108-.85.325-1.201.223-.356.532-.632.927-.826.395-.2.842-.3 1.343-.3.512 0 .954.11 1.327.333.373.217.637.52.793.91l-1.227.625c-.206-.406-.506-.609-.901-.609a.965.965 0 0 0-.71.284c-.183.19-.275.45-.275.784 0 .34.092.607.275.801.19.19.426.284.71.284.395 0 .695-.203.901-.609l1.227.626c-.156.39-.42.695-.793.918-.373.217-.815.325-1.327.325ZM109.497 28.176c.557 0 .999.167 1.327.5.334.335.501.838.501 1.511v2.587h-1.586v-2.328c0-.317-.061-.55-.183-.701-.117-.15-.284-.225-.501-.225a.725.725 0 0 0-.576.25c-.144.167-.217.42-.217.76v2.244h-1.585v-2.328c0-.618-.228-.926-.685-.926a.735.735 0 0 0-.584.25c-.144.167-.217.42-.217.76v2.244h-1.585v-4.523h1.51v.476c.167-.184.365-.32.593-.409.233-.095.486-.142.759-.142.317 0 .601.059.851.176.251.116.454.294.609.534.178-.229.404-.404.676-.526.273-.123.571-.184.893-.184ZM114.68 31.64c.217 0 .403-.031.559-.093.161-.06.322-.16.484-.3l.826.868c-.429.49-1.068.734-1.919.734-.529 0-.993-.1-1.394-.3a2.274 2.274 0 0 1-.935-.835 2.278 2.278 0 0 1-.325-1.21c0-.445.108-.842.325-1.193.217-.356.515-.634.893-.834.384-.2.813-.3 1.285-.3.44 0 .84.091 1.202.275.367.178.659.442.876.792.217.345.326.757.326 1.235l-3.23.618c.173.361.515.542 1.027.542Zm-.192-2.337a.905.905 0 0 0-.668.258c-.172.167-.27.41-.292.726l1.836-.358a.823.823 0 0 0-.317-.451.906.906 0 0 0-.559-.175ZM122.028 32.774v-2.378l-1.16 1.978h-.676l-1.126-2.012v2.412h-1.427v-4.523h1.669l1.26 2.362 1.385-2.362h1.494l.008 4.523h-1.427ZM126.678 32.908c-1.497 0-2.245-.643-2.245-1.928v-2.729h1.577v1.436c.117-.078.273-.142.467-.192a2.84 2.84 0 0 1 .685-.075c.556 0 .993.141 1.31.425.317.278.475.693.475 1.244 0 .595-.205 1.048-.617 1.36-.406.306-.957.459-1.652.459Zm2.645-4.657h1.585v4.523h-1.585v-4.523Zm-2.645 3.572c.217 0 .381-.064.492-.192.111-.128.167-.298.167-.51 0-.205-.056-.366-.167-.483-.111-.117-.273-.175-.484-.175a.925.925 0 0 0-.401.083.7.7 0 0 0-.275.225v.35c0 .218.056.39.167.518.111.123.278.184.501.184Z" fill="#fff"/><path d="M4.885 25.004 9.571 14.21h1.572v3.054l-3.325 7.74h2.479v-1.39c0-.34.564-.364.846-.334v4.264c-.774 0-.886-.262-.846-.393v-1.21H7.364L.108 42.147h-.272l1.844-5.593S.047 35.919.592 34.557c.544-1.36 3.81-8.617 3.81-8.617H.591v-.937h4.293Z" fill="url(#b)"/><path d="M17.1 25.004 12.413 14.21h-1.572v3.054l3.326 7.74h-2.48v-1.39c0-.34-.564-.364-.846-.334v4.264c.774 0 .887-.262.847-.393v-1.21h2.932l7.257 16.206h.272l-1.844-5.593s1.632-.635 1.088-1.996c-.544-1.36-3.81-8.617-3.81-8.617h3.81v-.937H17.1Z" fill="url(#c)"/><path fill-rule="evenodd" clip-rule="evenodd" d="M11.023 12.638a3.205 3.205 0 1 0 0-6.41 3.205 3.205 0 0 0 0 6.41Zm0 1.754a4.958 4.958 0 1 0 0-9.917 4.958 4.958 0 0 0 0 9.917Z" fill="#fff"/><path d="M10.116 0h1.814v4.777h-1.814V0Z" fill="#fff"/></g><defs><linearGradient id="b" x1="10.992" y1="14.21" x2="10.992" y2="42.147" gradientUnits="userSpaceOnUse"><stop stop-color="#FFA948"/><stop offset=".516" stop-color="#FF6E14"/></linearGradient><linearGradient id="c" x1="10.992" y1="14.21" x2="10.992" y2="42.147" gradientUnits="userSpaceOnUse"><stop stop-color="#FFA948"/><stop offset=".516" stop-color="#FF6E14"/></linearGradient><clipPath id="a"><path fill="#fff" d="M0 0h131v42H0z"/></clipPath></defs></svg>